<svg xmlns="http://www.w3.org/2000/svg" viewBox="0 0 64 64" role="img" aria-labelledby="title desc">
  <title id="title">PreSalesGuard</title>
  <desc id="desc">PS 字母组合置于盾牌中，代表受到保护的售前工作</desc>
  <defs>
    <linearGradient id="shield" x1="12" y1="7" x2="52" y2="57" gradientUnits="userSpaceOnUse">
      <stop stop-color="#16A3FF"/>
      <stop offset=".5" stop-color="#1768F2"/>
      <stop offset="1" stop-color="#2436B8"/>
    </linearGradient>
    <linearGradient id="accent" x1="29" y1="18" x2="47" y2="46" gradientUnits="userSpaceOnUse">
      <stop stop-color="#8FF7EA"/>
      <stop offset="1" stop-color="#27D2C2"/>
    </linearGradient>
    <filter id="shadow" x="-20%" y="-15%" width="140%" height="145%">
      <feDropShadow dx="0" dy="2" stdDeviation="2" flood-color="#0B2A78" flood-opacity=".28"/>
    </filter>
  </defs>
  <path fill="url(#shield)" filter="url(#shadow)" d="M32 3.5c7.2 3.6 15.1 6.1 23.5 7.6v17.6c0 14.4-7.8 24.4-23.5 31.8C16.3 53.1 8.5 43.1 8.5 28.7V11.1C16.9 9.6 24.8 7.1 32 3.5Z"/>
  <path fill="none" stroke="#FFFFFF" stroke-opacity=".22" stroke-width="1.4" d="M32 8.3c5.9 2.7 12.2 4.7 18.8 6v14.1c0 11.7-6 20-18.8 26.4-12.8-6.4-18.8-14.7-18.8-26.4V14.3c6.6-1.3 12.9-3.3 18.8-6Z"/>
  <path fill="#FFFFFF" d="M17.2 18.2h10.1c6.1 0 9.7 3.1 9.7 8.2 0 5.2-3.6 8.4-9.8 8.4h-3.7v11h-6.3V18.2Zm6.3 5.3v6.1h3.4c2.5 0 3.8-1 3.8-3.1s-1.3-3-3.8-3h-3.4Z"/>
  <path fill="none" stroke="url(#accent)" stroke-width="4.6" stroke-linecap="round" d="M46.8 22.1c-2-2.3-4.4-3.5-7.2-3.5-4.2 0-7 2.3-7 5.7 0 3.2 2.4 4.6 7.1 5.8 4.9 1.2 7.3 3.2 7.3 7 0 5.1-4 8.3-9.7 8.3-3.6 0-6.6-1.2-9-3.6"/>
</svg>
