<svg xmlns="http://www.w3.org/2000/svg" viewBox="0 0 64 64" role="img" aria-labelledby="title desc">
  <title id="title">PreSalesGuard</title>
  <desc id="desc">由盾牌、文档、字母 P 与核验标记构成的售前文档保护标识</desc>
  <defs>
    <linearGradient id="shield" x1="10" y1="6" x2="54" y2="58" gradientUnits="userSpaceOnUse">
      <stop stop-color="#22C7F2"/>
      <stop offset=".48" stop-color="#3478F6"/>
      <stop offset="1" stop-color="#3151C6"/>
    </linearGradient>
    <linearGradient id="paper" x1="21" y1="15" x2="45" y2="48" gradientUnits="userSpaceOnUse">
      <stop stop-color="#FFFFFF"/>
      <stop offset="1" stop-color="#E9F2FF"/>
    </linearGradient>
  </defs>
  <path fill="#102A56" d="M32 2.5 57 12v17.4c0 15.6-9.3 25-25 32.1C16.3 54.4 7 45 7 29.4V12l25-9.5Z"/>
  <path fill="url(#shield)" d="M32 7 52.5 14.8v14.4c0 12.8-7.3 20.8-20.5 27-13.2-6.2-20.5-14.2-20.5-27V14.8L32 7Z"/>
  <path fill="none" stroke="#BFEAFF" stroke-opacity=".68" stroke-width="1.35" d="M32 10.7 49 17v12.1c0 10.5-5.6 17.2-17 22.8-11.4-5.6-17-12.3-17-22.8V17l17-6.3Z"/>
  <path fill="url(#paper)" d="M20 15h17l8 8v25H20V15Z"/>
  <path fill="#B8D7FF" d="M37 15v8h8l-8-8Z"/>
  <path fill="#2864DC" d="M25 22h7.2c5.1 0 8.1 2.7 8.1 7.1 0 4.5-3.1 7.3-8.2 7.3H30V42h-5V22Zm5 4.2v6h2c2.2 0 3.3-1 3.3-3s-1.1-3-3.3-3h-2Z"/>
  <path fill="none" stroke="#11B99A" stroke-width="3.8" stroke-linecap="round" stroke-linejoin="round" d="m31.5 43 3.4 3.4 7.7-8.2"/>
</svg>
