<svg xmlns="http://www.w3.org/2000/svg" viewBox="0 0 64 64" role="img" aria-labelledby="title desc">
  <title id="title">TenderGuard</title>
  <desc id="desc">由字母 T 与 G 构成的盾牌标识</desc>
  <defs>
    <linearGradient id="shield" x1="8" y1="4" x2="55" y2="59" gradientUnits="userSpaceOnUse">
      <stop stop-color="#20D5F2"/>
      <stop offset="0.48" stop-color="#2875FF"/>
      <stop offset="1" stop-color="#4438CA"/>
    </linearGradient>
    <linearGradient id="edge" x1="13" y1="9" x2="48" y2="53" gradientUnits="userSpaceOnUse">
      <stop stop-color="#C8FAFF" stop-opacity=".9"/>
      <stop offset="1" stop-color="#8AA8FF" stop-opacity=".15"/>
    </linearGradient>
  </defs>
  <path fill="#0A1020" d="M32 2 58 12v18c0 15.9-9.7 25.3-26 32C15.7 55.3 6 45.9 6 30V12L32 2Z"/>
  <path fill="url(#shield)" d="M32 6.5 54 15v15c0 13-7.6 21.2-22 27.5C17.6 51.2 10 43 10 30V15l22-8.5Z"/>
  <path fill="none" stroke="url(#edge)" stroke-width="1.5" d="M32 10.2 50.5 17v13c0 10.9-6 18-18.5 23.7C19.5 48 13.5 40.9 13.5 30V17L32 10.2Z"/>
  <path fill="#fff" d="M15 18h22v7h-7v23h-8V25h-7v-7Z"/>
  <path fill="none" stroke="#DFFBFF" stroke-width="6" stroke-linecap="square" stroke-linejoin="round" d="M48 24c-2.1-3-5.2-4.5-8.7-4.5-7 0-11.3 5.5-11.3 13.2S32.5 46 39.7 46c3.2 0 6.2-1 8.3-2.8V34h-8"/>
</svg>
